<svg width="20" height="20" viewBox="0 0 20 20" fill="none" xmlns="http://www.w3.org/2000/svg">
<path d="M8.34263 1.94002C8.43304 1.39756 8.90238 0.999969 9.45232 0.999969H10.5463C11.0962 0.999969 11.5656 1.39756 11.656 1.94002L11.8049 2.83383C11.8757 3.2581 12.1886 3.59835 12.5858 3.76329C12.9832 3.92829 13.4396 3.90625 13.7897 3.65614L14.5273 3.1293C14.9748 2.80966 15.5878 2.86039 15.9767 3.24926L16.7503 4.02281C17.1391 4.41168 17.1899 5.02469 16.8702 5.4722L16.3432 6.21003C16.0931 6.56009 16.0711 7.0163 16.2361 7.4136C16.4009 7.81075 16.7411 8.1236 17.1653 8.1943L18.0593 8.34329C18.6017 8.4337 18.9993 8.90304 18.9993 9.45299V10.547C18.9993 11.0969 18.6017 11.5662 18.0593 11.6566L17.1654 11.8056C16.7412 11.8763 16.4009 12.1892 16.236 12.5865C16.071 12.9839 16.093 13.4402 16.3431 13.7904L16.8699 14.5278C17.1895 14.9753 17.1388 15.5883 16.7499 15.9772L15.9764 16.7507C15.5875 17.1396 14.9745 17.1903 14.527 16.8707L13.7894 16.3438C13.4393 16.0938 12.983 16.0717 12.5857 16.2367C12.1885 16.4016 11.8757 16.7418 11.805 17.166L11.656 18.0599C11.5656 18.6024 11.0962 19 10.5463 19H9.45232C8.90238 19 8.43304 18.6024 8.34263 18.0599L8.19366 17.1661C8.12295 16.7418 7.81002 16.4016 7.41279 16.2367C7.01538 16.0717 6.55905 16.0937 6.2089 16.3438L5.47128 16.8707C5.02377 17.1903 4.41076 17.1396 4.02189 16.7507L3.24834 15.9772C2.85947 15.5883 2.80874 14.9753 3.12839 14.5278L3.65542 13.7899C3.90546 13.4399 3.92751 12.9837 3.76256 12.5863C3.59767 12.1892 3.2575 11.8763 2.83332 11.8056L1.93935 11.6566C1.39689 11.5662 0.999302 11.0969 0.999302 10.547V9.45299C0.999302 8.90304 1.39689 8.4337 1.93935 8.34329L2.83316 8.19433C3.25743 8.12361 3.59769 7.81068 3.76262 7.41344C3.92763 7.01602 3.90559 6.55967 3.65548 6.20951L3.12878 5.47213C2.80913 5.02462 2.85987 4.41161 3.24874 4.02274L4.02229 3.24919C4.41115 2.86033 5.02417 2.80959 5.47167 3.12924L6.20927 3.65609C6.55934 3.90615 7.01558 3.92819 7.4129 3.76323C7.81007 3.59834 8.12294 3.25816 8.19364 2.83397L8.34263 1.94002Z" stroke="black" stroke-width="1.5" stroke-linecap="round" stroke-linejoin="round"/>
<path d="M13 9.99999C13 11.6568 11.6569 13 10 13C8.34315 13 7 11.6568 7 9.99999C7 8.34314 8.34315 6.99999 10 6.99999C11.6569 6.99999 13 8.34314 13 9.99999Z" stroke="black" stroke-width="1.5" stroke-linecap="round" stroke-linejoin="round"/>
</svg>
